<?xml version="1.0" ?>
<!-- Uploaded to: SVG Repo, www.svgrepo.com, Generator: SVG Repo Mixer Tools -->
<svg width="800px" height="800px" viewBox="0 0 64 64" id="Layer_1" version="1.1" xml:space="preserve" xmlns="http://www.w3.org/2000/svg" xmlns:xlink="http://www.w3.org/1999/xlink">
<style type="text/css">
	.st0{fill:#BF7D2C;}
	.st1{fill:#406928;}
	.st2{fill:#589137;}
	.st3{fill:#313740;}
	.st4{fill:#7D828C;}
</style>
<g id="Layer_27">
<path class="st0" d="M32,50c-1.7,0-3-1.3-3-3s1.3-3,3-3c1.7,0,3,1.3,3,3"/>
<polyline class="st1" points="32,50 40,42 44,42 48,38 52,38 62,48 62,58 43,58  "/>
<polygon class="st2" points="46,58 56,48 62,48 62,58  "/>
<rect class="st3" height="4" width="60" x="2" y="58"/>
<polyline class="st2" points="19,58 27,50 36,50 43,58  "/>
<rect class="st4" height="4" width="10" x="2" y="34"/>
<rect class="st4" height="4" width="10" x="2" y="26"/>
<rect class="st4" height="4" width="10" x="2" y="18"/>
<rect class="st4" height="4" width="10" x="2" y="10"/>
<rect class="st4" height="4" width="10" x="2" y="2"/>
<rect class="st4" height="2" width="30" x="15" y="35"/>
<rect class="st4" height="2" width="48" x="15" y="27"/>
<rect class="st4" height="2" width="48" x="15" y="19"/>
<rect class="st4" height="2" width="48" x="15" y="11"/>
<rect class="st4" height="2" width="48" x="15" y="3"/>
<path class="st1" d="M15.6,42.8l-1.3-1.5l10.8-8.8l2.9-8.7c0.1-0.2,0.2-0.4,0.4-0.5l12.8-7.8l3.9-7.7c0.1-0.2,0.2-0.3,0.4-0.4l7-4   l1,1.7l-6.7,3.9l-3.9,7.7c-0.1,0.2-0.2,0.3-0.4,0.4l-12.7,7.8l-2.9,8.7c-0.1,0.2-0.2,0.3-0.3,0.5L15.6,42.8z"/>
</g>
</svg>